<svg viewBox="0 0 360 240" xmlns="http://www.w3.org/2000/svg" role="img" aria-label="Masaüstü kule kasa, dizüstü ve tümleşik bilgisayar yan yana"><defs><linearGradient id="h5yk" x1="0" y1="0" x2="0" y2="1"><stop offset="0" stop-color="#f0f9ff"/><stop offset="1" stop-color="#dbeafe"/></linearGradient></defs><rect width="360" height="240" rx="18" fill="url(#h5yk)"/><defs><linearGradient id="ekrangr" x1="0" y1="0" x2="1" y2="1"><stop offset="0" stop-color="#22d3ee"/><stop offset=".6" stop-color="#6366f1"/><stop offset="1" stop-color="#a855f7"/></linearGradient></defs><rect x="0" y="176" width="360" height="64" fill="#e2e8f0"/><g transform="translate(40 74) scale(1.0)"><rect x="0" y="0" width="46" height="100" rx="6" fill="#1f2229"/><rect x="4" y="5" width="38" height="90" rx="4" fill="#2c3038"/><circle cx="23" cy="16" r="4.5" fill="#1d2027" stroke="#7dd3fc" stroke-width="1.5"/><rect x="10" y="28" width="26" height="3" rx="1.5" fill="#3a3f48"/><rect x="10" y="34" width="26" height="3" rx="1.5" fill="#3a3f48"/><rect x="-2" y="98" width="10" height="4" rx="2" fill="#111"/><rect x="38" y="98" width="10" height="4" rx="2" fill="#111"/></g><g transform="translate(118 112) scale(1.0)"><path d="M10 0h70a4 4 0 0 1 4 4v48H6V4a4 4 0 0 1 4-4z" fill="#9ca3af"/><rect x="11" y="5" width="68" height="43" rx="2" fill="url(#ekrangr)"/><path d="M0 54h90l-6 8H6z" fill="#b8bec6"/><rect x="34" y="55.5" width="22" height="3" rx="1.5" fill="#9ca3af"/></g><g transform="translate(228 84) scale(1.0)"><rect x="0" y="0" width="104" height="66" rx="4" fill="#111318"/><rect x="4" y="4" width="96" height="50" rx="2" fill="url(#ekrangr)"/><rect x="0" y="56" width="104" height="10" rx="3" fill="#d4d8de"/><path d="M44 66h16l6 22H38z" fill="#c3c8cf"/><rect x="28" y="86" width="48" height="5" rx="2.5" fill="#c3c8cf"/></g><text x="63" y="200" font-family="Inter,Arial,sans-serif" font-size="12" font-weight="800" fill="#334155" text-anchor="middle">Masaüstü</text><text x="163" y="200" font-family="Inter,Arial,sans-serif" font-size="12" font-weight="800" fill="#334155" text-anchor="middle">Dizüstü</text><text x="280" y="200" font-family="Inter,Arial,sans-serif" font-size="12" font-weight="800" fill="#334155" text-anchor="middle">Tümleşik</text></svg>
