<svg viewBox="0 0 360 240" xmlns="http://www.w3.org/2000/svg" role="img" aria-label="Büyük masaüstü kasa, ince dizüstü ve telefon; aynı parçalar küçük cihazlara nasıl sığıyor?"><defs><linearGradient id="h12isBg" x1="0" y1="0" x2="0" y2="1"><stop offset="0" stop-color="#f0f9ff"/><stop offset="1" stop-color="#dbeafe"/></linearGradient></defs><rect width="360" height="240" rx="18" fill="url(#h12isBg)"/><g transform="translate(22 42) scale(1.0)"><rect x="0" y="0" width="92" height="160" rx="7" fill="#2a2d33"/><rect x="6" y="6" width="80" height="148" rx="5" fill="#1b1e24"/><rect x="12" y="12" width="68" height="100" rx="3" fill="#1f5a3a"/><rect x="22" y="22" width="26" height="26" rx="3" fill="#aeb4bd"/><circle cx="35" cy="35" r="10" fill="#475569"/><circle cx="35" cy="35" r="3" fill="#94a3b8"/><rect x="56" y="18" width="4" height="36" rx="1" fill="#0f172a"/><rect x="57" y="20" width="2" height="32" fill="#3b82f6"/><rect x="63" y="18" width="4" height="36" rx="1" fill="#0f172a"/><rect x="64" y="20" width="2" height="32" fill="#3b82f6"/><rect x="70" y="18" width="4" height="36" rx="1" fill="#0f172a"/><rect x="71" y="20" width="2" height="32" fill="#3b82f6"/><rect x="14" y="66" width="62" height="14" rx="2" fill="#30343c"/><rect x="16" y="68" width="20" height="10" rx="2" fill="#475569"/><rect x="40" y="68" width="20" height="10" rx="2" fill="#475569"/><rect x="12" y="120" width="68" height="28" rx="3" fill="#30343c"/><rect x="18" y="126" width="26" height="16" rx="2" fill="#1f2126"/></g><g transform="translate(68 222)"><rect x="-44.7" y="-9" width="89.4" height="18" rx="9" fill="#334155"/><text x="0" y="3.6" font-family="Inter,Arial,sans-serif" font-size="10" font-weight="800" fill="#fff" text-anchor="middle">Masaüstü kasa</text></g><g transform="translate(196 158) scale(1.05)"><rect x="-44" y="-52" width="88" height="56" rx="5" fill="#9aa1ab"/><rect x="-40" y="-48" width="80" height="48" rx="3" fill="#0ea5e9"/><rect x="-34" y="-42" width="36" height="24" rx="3" fill="#e0f2fe" opacity=".9"/><rect x="8" y="-38" width="26" height="20" rx="3" fill="#bae6fd" opacity=".8"/><path d="M-54 4 H54 L50 12 H-50 Z" fill="#aeb4bd"/><rect x="-12" y="4" width="24" height="3" rx="1.5" fill="#8b929c"/></g><g transform="translate(196 222)"><rect x="-27.3" y="-9" width="54.6" height="18" rx="9" fill="#334155"/><text x="0" y="3.6" font-family="Inter,Arial,sans-serif" font-size="10" font-weight="800" fill="#fff" text-anchor="middle">Dizüstü</text></g><g transform="translate(310 138) scale(1.35)"><rect x="-15" y="-30" width="30" height="60" rx="6" fill="#1f2937"/><rect x="-13" y="-27" width="26" height="54" rx="4" fill="#1e3a8a"/><circle cx="0" cy="-24.5" r="1.3" fill="#0b0f19"/></g><g transform="translate(310 222)"><rect x="-27.3" y="-9" width="54.6" height="18" rx="9" fill="#334155"/><text x="0" y="3.6" font-family="Inter,Arial,sans-serif" font-size="10" font-weight="800" fill="#fff" text-anchor="middle">Telefon</text></g><g transform="translate(232 50)"><circle r="15" fill="#fff" stroke="#0ea5e9" stroke-width="2.5"/><text x="0" y="6" font-family="Inter,Arial,sans-serif" font-size="18" font-weight="900" fill="#0284c7" text-anchor="middle">?</text></g><g transform="translate(330 60)"><circle r="15" fill="#fff" stroke="#0ea5e9" stroke-width="2.5"/><text x="0" y="6" font-family="Inter,Arial,sans-serif" font-size="18" font-weight="900" fill="#0284c7" text-anchor="middle">?</text></g><path d="M120 60 C150 40 180 40 206 52" stroke="#0ea5e9" stroke-width="2" stroke-dasharray="4 4" fill="none"/><g transform="translate(158 24)"><rect x="-98.3" y="-9" width="196.7" height="18" rx="9" fill="#0ea5e9"/><text x="0" y="3.6" font-family="Inter,Arial,sans-serif" font-size="10.5" font-weight="800" fill="#fff" text-anchor="middle">İşlemci, RAM, depolama nerede?</text></g></svg>
