<svg viewBox="0 0 80 60" xmlns="http://www.w3.org/2000/svg" role="img" aria-label="Çekirdekler ve iş parçacıkları"><rect width="80" height="60" rx="10" fill="#ede9fe"/><rect x="10" y="8" width="26" height="18" rx="3" fill="#6d28d9"/><rect x="13" y="13" width="10" height="4" rx="2" fill="#fde68a"/><rect x="23" y="13" width="10" height="4" rx="2" fill="#a5f3fc"/><rect x="44" y="8" width="26" height="18" rx="3" fill="#6d28d9"/><rect x="47" y="13" width="10" height="4" rx="2" fill="#fde68a"/><rect x="57" y="13" width="10" height="4" rx="2" fill="#a5f3fc"/><rect x="10" y="32" width="26" height="18" rx="3" fill="#6d28d9"/><rect x="13" y="37" width="10" height="4" rx="2" fill="#fde68a"/><rect x="23" y="37" width="10" height="4" rx="2" fill="#a5f3fc"/><rect x="44" y="32" width="26" height="18" rx="3" fill="#6d28d9"/><rect x="47" y="37" width="10" height="4" rx="2" fill="#fde68a"/><rect x="57" y="37" width="10" height="4" rx="2" fill="#a5f3fc"/></svg>
