<svg viewBox="0 0 80 60" xmlns="http://www.w3.org/2000/svg" role="img" aria-label="İki kablo ucu da tam oturmuş, onay işareti"><rect x="0" y="0" width="80" height="60" rx="10" fill="#e0f2fe"/><rect x="8" y="8" width="64" height="20" rx="4" fill="#9ba1a9"/><rect x="18" y="22" width="18" height="12" rx="2" fill="#17181c"/><rect x="42" y="22" width="26" height="12" rx="2" fill="#17181c"/><path d="M27 34 C27 64 22 30 22 60" fill="none" stroke="#c3242a" stroke-width="6" stroke-linecap="butt"/><path d="M50.5 34 C50.5 60 53.5 34 53.5 60" fill="none" stroke="#e8b10c" stroke-width="4.2" stroke-linecap="round"/><path d="M53.5 34 C53.5 60 56.5 34 56.5 60" fill="none" stroke="#17181b" stroke-width="4.2" stroke-linecap="round"/><path d="M56.5 34 C56.5 60 59.5 34 59.5 60" fill="none" stroke="#d0282b" stroke-width="4.2" stroke-linecap="round"/><path d="M59.5 34 C59.5 60 62.5 34 62.5 60" fill="none" stroke="#17181b" stroke-width="4.2" stroke-linecap="round"/><circle cx="66" cy="46" r="9" fill="#10b981"/><path d="M62 46 l3 3 l5 -6" fill="none" stroke="#fff" stroke-width="2.4" stroke-linecap="round" stroke-linejoin="round"/></svg>
