<svg viewBox="0 0 80 60" xmlns="http://www.w3.org/2000/svg" role="img" aria-label="Bilgisayara kurulu oyun"><rect width="80" height="60" rx="10" fill="#f1f5f9"/><rect x="14" y="36" width="52" height="14" rx="3" fill="#475569"/><circle cx="58" cy="43" r="2" fill="#22c55e"/><g transform="translate(21 6) scale(0.95)"><path d="M8 2h24c6 0 9 6 9 13s-4 12-8 9l-5-5H12l-5 5c-4 3-8-2-8-9S2 2 8 2z" fill="#7c3aed"/><rect x="6" y="10" width="10" height="3" fill="#fff"/><rect x="9.5" y="6.5" width="3" height="10" fill="#fff"/><circle cx="28" cy="9" r="2.2" fill="#fff"/><circle cx="32" cy="14" r="2.2" fill="#fff"/></g><circle cx="66" cy="14" r="6" fill="#10b981"/><path d="M63 14l2.2 2.2 4-4" stroke="#fff" stroke-width="1.8" fill="none" stroke-linecap="round"/></svg>
