<svg viewBox="0 0 360 240" xmlns="http://www.w3.org/2000/svg" role="img" aria-label="Akşam, öğrenci bilgisayarda kaydedilmemiş ödevini yazıyor; dışarıda fırtına var, ışıklar titriyor" class="h7-is"><defs><linearGradient id="h7is" x1="0" y1="0" x2="0" y2="1"><stop offset="0" stop-color="#e8eefb"/><stop offset="1" stop-color="#dbe4f5"/></linearGradient></defs><rect width="360" height="240" rx="18" fill="url(#h7is)"/><rect x="22" y="22" width="92" height="74" rx="6" fill="#1e2a4a" stroke="#cbd5e1" stroke-width="4"/><path d="M68 22v74M22 59h92" stroke="#cbd5e1" stroke-width="3"/><g class="h7-yagmur" stroke="#8fa8d8" stroke-width="1.4" stroke-linecap="round"><path d="M30 30 l-3 8"/><path d="M43 47 l-3 8"/><path d="M56 64 l-3 8"/><path d="M69 81 l-3 8"/><path d="M82 40 l-3 8"/><path d="M95 57 l-3 8"/><path d="M108 74 l-3 8"/><path d="M41 33 l-3 8"/><path d="M54 50 l-3 8"/><path d="M67 67 l-3 8"/><path d="M80 84 l-3 8"/><path d="M93 43 l-3 8"/><path d="M106 60 l-3 8"/><path d="M39 77 l-3 8"/></g><g class="h7-simsek"><g transform="translate(92 44) scale(1.6)"><path d="M4 -12l-10 13h7l-4 11 12-15h-7z" fill="#fde68a" stroke="#a16207" stroke-width="1"/></g></g><rect x="0" y="176" width="360" height="64" fill="#c9b08e"/><rect x="0" y="170" width="360" height="10" fill="#b08a5e"/><rect x="150" y="60" width="150" height="96" rx="8" fill="#1f2937"/><rect x="157" y="67" width="136" height="80" rx="3" fill="#ffffff" class="h7-ekran"/><rect x="157" y="67" width="136" height="14" fill="#d97706"/><text x="163" y="77.5" font-family="Inter,Arial,sans-serif" font-size="8.5" font-weight="800" fill="#fff" text-anchor="start">Ödevim.txt  •</text><g class="h7-yazi"><rect x="164" y="88" width="104" height="4" rx="2" fill="#94a3b8"/><rect x="164" y="98" width="118" height="4" rx="2" fill="#94a3b8"/><rect x="164" y="108" width="96" height="4" rx="2" fill="#94a3b8"/><rect x="164" y="118" width="60" height="4" rx="2" fill="#94a3b8"/><rect class="h7-imlec" x="227" y="116" width="2" height="8" fill="#0f172a"/></g><rect x="214" y="156" width="22" height="14" fill="#374151"/><rect x="196" y="166" width="58" height="6" rx="3" fill="#374151"/><rect x="238" y="129" width="50" height="14" rx="7" fill="#fee2e2" stroke="#ef4444"/><text x="263" y="139" font-family="Inter,Arial,sans-serif" font-size="7.5" font-weight="800" fill="#b91c1c" text-anchor="middle">Kaydedilmedi</text><g transform="translate(118 150) scale(1.05)"><rect x="-26" y="44" width="52" height="14" rx="4" fill="#475569"/><rect x="-4" y="58" width="8" height="30" fill="#334155"/><rect x="-22" y="86" width="44" height="5" rx="2.5" fill="#1f2937"/><path d="M-24 46c0-22 8-34 24-34s24 12 24 34z" fill="#0d9488"/><path d="M-4 14h8v6h-8z" fill="#c8906a"/><circle cx="0" cy="0" r="15" fill="#c8906a"/><path d="M-15 -1c0-12 7-17 15-17s15 5 15 17c-4-4-9-6-15-6s-11 2-15 6z" fill="#2b1d16"/><path d="M-15 -2c0 8 3 12 6 14" fill="none" stroke="#2b1d16" stroke-width="4"/><path d="M-22 30c-8 6-10 14-6 20" stroke="#0d9488" stroke-width="9" fill="none" stroke-linecap="round"/><path d="M22 30c8 6 10 14 6 20" stroke="#0d9488" stroke-width="9" fill="none" stroke-linecap="round"/></g><rect class="h7-karart" x="0" y="0" width="360" height="240" rx="18" fill="#0b1224" opacity="0"/><g transform="translate(248 18)"><rect width="100" height="36" rx="10" fill="#fff" stroke="#cbd5e1" stroke-width="2"/><path d="M20 36l-6 9 14-9" fill="#fff" stroke="#cbd5e1" stroke-width="2"/><rect x="15" y="34" width="16" height="4" fill="#fff"/><text x="50" y="16" font-family="Inter,Arial,sans-serif" font-size="9.5" font-weight="800" fill="#334155" text-anchor="middle">Işıklar titriyor…</text><text x="50" y="29" font-family="Inter,Arial,sans-serif" font-size="9" font-weight="800" fill="#64748b" text-anchor="middle">Ya kesilirse?</text></g></svg>
