<svg viewBox="0 0 360 240" xmlns="http://www.w3.org/2000/svg" role="img" aria-label="Çalışma masası RAM’dir, yanındaki dosya dolabı depolamadır; dosyalar dolaptan masaya gelir"><defs><linearGradient id="h7ym" x1="0" y1="0" x2="0" y2="1"><stop offset="0" stop-color="#f0f9ff"/><stop offset="1" stop-color="#dbeafe"/></linearGradient></defs><rect width="360" height="240" rx="18" fill="url(#h7ym)"/><g transform="translate(26 118) scale(1.2)"><rect x="0" y="0" width="150" height="8" rx="2.5" fill="#d4a373" stroke="#a9794b"/><rect x="8" y="8" width="5" height="62" fill="#3a3d44"/><rect x="137" y="8" width="5" height="62" fill="#3a3d44"/><rect x="14" y="8" width="122" height="16" fill="#6b4a2f" opacity=".75"/></g><g transform="translate(46 98) scale(1.1)"><rect width="28" height="20" rx="2.5" fill="#fbfaf6" stroke="#2563eb" stroke-width="1.4"/><rect width="28" height="6" rx="2.5" fill="#2563eb"/><rect y="3" width="28" height="3" fill="#2563eb"/><rect x="13" y="9.5" width="11" height="1.6" fill="#d6d3cc"/><rect x="13" y="13" width="11" height="1.6" fill="#d6d3cc"/><rect x="13" y="16.5" width="7" height="1.6" fill="#d6d3cc"/></g><g transform="translate(84 98) scale(1.1)"><rect width="28" height="20" rx="2.5" fill="#fbfaf6" stroke="#7c3aed" stroke-width="1.4"/><rect width="28" height="6" rx="2.5" fill="#7c3aed"/><rect y="3" width="28" height="3" fill="#7c3aed"/><rect x="13" y="9.5" width="11" height="1.6" fill="#d6d3cc"/><rect x="13" y="13" width="11" height="1.6" fill="#d6d3cc"/><rect x="13" y="16.5" width="7" height="1.6" fill="#d6d3cc"/></g><g transform="translate(122 98) scale(1.1)"><rect width="28" height="20" rx="2.5" fill="#fbfaf6" stroke="#db2777" stroke-width="1.4"/><rect width="28" height="6" rx="2.5" fill="#db2777"/><rect y="3" width="28" height="3" fill="#db2777"/><rect x="13" y="9.5" width="11" height="1.6" fill="#d6d3cc"/><rect x="13" y="13" width="11" height="1.6" fill="#d6d3cc"/><rect x="13" y="16.5" width="7" height="1.6" fill="#d6d3cc"/></g><g transform="translate(240 80) scale(1.15)"><rect x="0" y="0" width="54" height="96" rx="4" fill="#cfc8ba" stroke="#a8a091" stroke-width="1.5"/><rect x="2" y="92" width="50" height="6" rx="2" fill="#2b2d31"/><rect x="-4" y="-2.0" width="62" height="12" rx="2" fill="#bdb5a6"/><rect x="0" y="-2.0" width="54" height="4" fill="#9c9484"/><rect x="6" y="-8.0" width="4" height="8" fill="#2563eb"/><rect x="14" y="-8.0" width="4" height="8" fill="#16a34a"/><rect x="22" y="-8.0" width="4" height="8" fill="#d97706"/><rect x="3" y="6.0" width="48" height="27" rx="2.5" fill="#d9d2c5" stroke="#b3ab9c"/><rect x="17" y="18.0" width="20" height="3.4" rx="1.7" fill="#9ca3af"/><rect x="21" y="10.0" width="12" height="5" fill="#f8fafc" stroke="#9ca3af" stroke-width=".6"/><rect x="3" y="33.5" width="48" height="27" rx="2.5" fill="#d9d2c5" stroke="#b3ab9c"/><rect x="17" y="45.5" width="20" height="3.4" rx="1.7" fill="#9ca3af"/><rect x="21" y="37.5" width="12" height="5" fill="#f8fafc" stroke="#9ca3af" stroke-width=".6"/><rect x="3" y="63.0" width="48" height="27" rx="2.5" fill="#d9d2c5" stroke="#b3ab9c"/><rect x="17" y="75.0" width="20" height="3.4" rx="1.7" fill="#9ca3af"/><rect x="21" y="67.0" width="12" height="5" fill="#f8fafc" stroke="#9ca3af" stroke-width=".6"/></g><path d="M246 60C210 30 170 50 150 90" fill="none" stroke="#0369a1" stroke-width="2.5" stroke-dasharray="5 4"/><path d="M150 90l-2 -10M150 90l9 -5" stroke="#0369a1" stroke-width="2.5"/><rect x="42" y="190" width="136" height="24" rx="12" fill="#0369a1"/><text x="110" y="206" font-family="Inter,Arial,sans-serif" font-size="11" font-weight="800" fill="#fff" text-anchor="middle">Masa = RAM (geçici)</text><rect x="214" y="200" width="130" height="24" rx="12" fill="#065f46"/><text x="279" y="216" font-family="Inter,Arial,sans-serif" font-size="11" font-weight="800" fill="#fff" text-anchor="middle">Dolap = Depolama</text></svg>
