<svg viewBox="0 0 360 240" xmlns="http://www.w3.org/2000/svg" role="img" aria-label="RAM modülü: bellek çipleri, altın temaslar ve ortada olmayan çentik"><defs><linearGradient id="h7yr" x1="0" y1="0" x2="0" y2="1"><stop offset="0" stop-color="#f0f9ff"/><stop offset="1" stop-color="#dbeafe"/></linearGradient></defs><rect width="360" height="240" rx="18" fill="url(#h7yr)"/><g transform="translate(30 70) scale(2.5)"><path d="M1 0H119Q120 0 120 1V14A2.5 2.5 0 0 0 120 19V31L119 32H66.3V27.6A1.7 1.7 0 0 0 62.9 27.6V32H1L0 31V19A2.5 2.5 0 0 0 0 14V1Q0 0 1 0Z" fill="#1f5a3a" stroke="#123826" stroke-width=".6"/><rect x="7.0" y="5" width="11" height="14" rx="1" fill="#17181c"/><rect x="8.5" y="6.5" width="8" height="1.2" fill="#2d3038"/><rect x="20.5" y="5" width="11" height="14" rx="1" fill="#17181c"/><rect x="22.0" y="6.5" width="8" height="1.2" fill="#2d3038"/><rect x="34.0" y="5" width="11" height="14" rx="1" fill="#17181c"/><rect x="35.5" y="6.5" width="8" height="1.2" fill="#2d3038"/><rect x="47.5" y="5" width="11" height="14" rx="1" fill="#17181c"/><rect x="49.0" y="6.5" width="8" height="1.2" fill="#2d3038"/><rect x="61.0" y="5" width="11" height="14" rx="1" fill="#17181c"/><rect x="62.5" y="6.5" width="8" height="1.2" fill="#2d3038"/><rect x="74.5" y="5" width="11" height="14" rx="1" fill="#17181c"/><rect x="76.0" y="6.5" width="8" height="1.2" fill="#2d3038"/><rect x="88.0" y="5" width="11" height="14" rx="1" fill="#17181c"/><rect x="89.5" y="6.5" width="8" height="1.2" fill="#2d3038"/><rect x="101.5" y="5" width="11" height="14" rx="1" fill="#17181c"/><rect x="103.0" y="6.5" width="8" height="1.2" fill="#2d3038"/><defs><pattern id="yr-tm" width="2" height="6" patternUnits="userSpaceOnUse"><rect width="2" height="6" fill="#e3b04f"/><rect x="1.4" width=".6" height="6" fill="#a87a28"/></pattern></defs><rect x="2.5" y="26" width="59.6" height="6" fill="url(#yr-tm)"/><rect x="67.1" y="26" width="50.4" height="6" fill="url(#yr-tm)"/><circle cx="64.6" cy="29" r="6" fill="none" stroke="#f59e0b" stroke-width="2"/></g><path d="M191 172v26" stroke="#b45309" stroke-width="2"/><text x="191" y="212" font-family="Inter,Arial,sans-serif" font-size="12" font-weight="800" fill="#b45309" text-anchor="middle">Çentik</text><path d="M90 152v40" stroke="#334155" stroke-width="1.5"/><text x="90" y="206" font-family="Inter,Arial,sans-serif" font-size="11" font-weight="800" fill="#334155" text-anchor="middle">Altın temaslar</text><path d="M110 70v-22" stroke="#334155" stroke-width="1.5"/><text x="110" y="42" font-family="Inter,Arial,sans-serif" font-size="11" font-weight="800" fill="#334155" text-anchor="middle">Bellek çipleri</text></svg>
