<svg viewBox="0 0 80 60" xmlns="http://www.w3.org/2000/svg" role="img" aria-label="Çift kanal: A2 ve B2 yuvaları dolu"><rect width="80" height="60" rx="10" fill="#ede9fe"/><g transform="translate(18 7) scale(0.72)"><rect x="0" y="0" width="9" height="52" rx="2" fill="#4a4f58"/><rect x="0" y="-4" width="9" height="5" rx="1.5" fill="#9ca3af"/><rect x="0" y="51" width="9" height="5" rx="1.5" fill="#9ca3af"/><rect x="16" y="0" width="9" height="52" rx="2" fill="#17181b"/><rect x="16" y="-4" width="9" height="5" rx="1.5" fill="#9ca3af"/><rect x="16" y="51" width="9" height="5" rx="1.5" fill="#9ca3af"/><rect x="17" y="2" width="7" height="48" rx="1" fill="#15803d"/><rect x="18" y="8.0" width="5" height="9" rx="1" fill="#111827"/><rect x="18" y="13.333333333333332" width="5" height="9" rx="1" fill="#111827"/><rect x="18" y="18.666666666666664" width="5" height="9" rx="1" fill="#111827"/><rect x="18" y="24.0" width="5" height="9" rx="1" fill="#111827"/><rect x="18" y="29.333333333333332" width="5" height="9" rx="1" fill="#111827"/><rect x="18" y="34.666666666666664" width="5" height="9" rx="1" fill="#111827"/><rect x="32" y="0" width="9" height="52" rx="2" fill="#4a4f58"/><rect x="32" y="-4" width="9" height="5" rx="1.5" fill="#9ca3af"/><rect x="32" y="51" width="9" height="5" rx="1.5" fill="#9ca3af"/><rect x="48" y="0" width="9" height="52" rx="2" fill="#17181b"/><rect x="48" y="-4" width="9" height="5" rx="1.5" fill="#9ca3af"/><rect x="48" y="51" width="9" height="5" rx="1.5" fill="#9ca3af"/><rect x="49" y="2" width="7" height="48" rx="1" fill="#15803d"/><rect x="50" y="8.0" width="5" height="9" rx="1" fill="#111827"/><rect x="50" y="13.333333333333332" width="5" height="9" rx="1" fill="#111827"/><rect x="50" y="18.666666666666664" width="5" height="9" rx="1" fill="#111827"/><rect x="50" y="24.0" width="5" height="9" rx="1" fill="#111827"/><rect x="50" y="29.333333333333332" width="5" height="9" rx="1" fill="#111827"/><rect x="50" y="34.666666666666664" width="5" height="9" rx="1" fill="#111827"/></g><text x="29" y="55" font-family="JetBrains Mono,Consolas,monospace" font-size="7" font-weight="900" fill="#4c1d95" text-anchor="middle">A2</text><text x="52" y="55" font-family="JetBrains Mono,Consolas,monospace" font-size="7" font-weight="900" fill="#4c1d95" text-anchor="middle">B2</text></svg>
